<svg width="2788" height="1684" version="1.1" xmlns="http://www.w3.org/2000/svg" desc="Created with imagetracer.js version 1.2.6" ><path fill="rgb(68,0,0)" stroke="rgb(68,0,0)" stroke-width="1" opacity="1" d="M 1344.5 646 L 1369.5 647 L 1389.5 651 L 1411.5 659 L 1432.5 671 L 1445.5 681 L 1459.5 695 L 1484.5 696 L 1503.5 700 L 1524.5 708 L 1546.5 721 L 1568 740.5 L 1578 752.5 L 1591 774.5 L 1600 799.5 L 1600 804.5 L 1603 817.5 L 1603 848.5 L 1599 869.5 L 1589 895.5 L 1580 911.5 L 1557.5 937 L 1548.5 945 L 1530.5 957 L 1511.5 966 L 1488 972 L 1481 985.5 L 1460.5 1009 L 1450.5 1018 L 1433.5 1029 L 1411.5 1039 L 1381.5 1046 L 1362.5 1046 L 1360.5 1047 L 1359.5 1046 L 1337.5 1044 L 1314.5 1037 L 1291.5 1025 L 1275.5 1013 L 1264 1001.5 L 1256 992.5 L 1244 974.5 L 1235 954.5 L 1228 926.5 L 1228 919.5 L 1227 918.5 L 1227 896.5 L 1229 893.5 L 1229 886.5 L 1235 859.5 L 1229 851.5 L 1219 827.5 L 1214 807.5 L 1214 797.5 L 1213 796.5 L 1213 787.5 L 1212 785.5 L 1213 784.5 L 1214 772.5 L 1213.5 771 L 1215 771.5 L 1219 741.5 L 1226 724.5 L 1242 698.5 L 1258 682.5 L 1258 681 L 1277.5 667 L 1301.5 655 L 1321.5 649 L 1343.5 647 L 1344.5 646 Z M 1352 733 L 1336 737 L 1324 744 L 1312 757 L 1308 765 L 1306 774 L 1340 760 L 1363 735 L 1361 733 L 1352 733 Z M 1497 799 L 1496 813 L 1493 829 L 1493 840 L 1499 856 L 1503 870 L 1511 857 L 1514 846 L 1514 829 L 1513 824 L 1509 814 L 1500 801 L 1497 799 Z M 1408 818 L 1392 831 L 1367 843 L 1385 849 L 1403 861 L 1408 866 L 1405 850 L 1405 833 L 1408 820 L 1408 818 Z M 1409 828 L 1406 834 L 1407 849 L 1412 862 L 1412 864 L 1414 864 L 1413 846 L 1409 828 Z M 1514 857 L 1507 871 L 1508 874 L 1510 873 L 1514 866 L 1514 857 Z M 1417 888 L 1414 912 L 1412 918 L 1413 922 L 1415 920 L 1418 911 L 1418 903 L 1419 902 L 1418 890 L 1417 888 Z M 1316 922 L 1320 932 L 1325 939 L 1342 951 L 1354 955 L 1361 955 L 1362 956 L 1372 955 L 1380 953 L 1350 930 L 1325 925 L 1316 922 Z " /><path fill="rgb(255,255,255)" stroke="rgb(255,255,255)" stroke-width="1" opacity="1" d="M 0 0 L 2788 0 L 2788 1684 L 0 1684 L 0 0 Z M 1345 646 L 1344 647 L 1322 649 L 1302 655 L 1278 667 L 1258 681 L 1258 683 L 1242 699 L 1226 725 L 1219 742 L 1219 748 L 1216 759 L 1215 772 L 1213 777 L 1213 785 L 1212 786 L 1213 788 L 1213 797 L 1214 798 L 1214 808 L 1219 828 L 1229 852 L 1235 860 L 1229 887 L 1229 894 L 1227 897 L 1227 919 L 1228 920 L 1228 927 L 1235 955 L 1244 975 L 1256 993 L 1264 1002 L 1276 1013 L 1292 1025 L 1315 1037 L 1338 1044 L 1360 1046 L 1361 1047 L 1363 1046 L 1382 1046 L 1412 1039 L 1434 1029 L 1451 1018 L 1461 1009 L 1481 986 L 1488 972 L 1512 966 L 1531 957 L 1549 945 L 1558 937 L 1580 912 L 1589 896 L 1599 870 L 1603 849 L 1603 818 L 1600 805 L 1600 800 L 1591 775 L 1578 753 L 1568 741 L 1547 721 L 1525 708 L 1504 700 L 1485 696 L 1460 695 L 1446 681 L 1433 671 L 1412 659 L 1390 651 L 1370 647 L 1345 646 Z " /><path fill="rgb(255,255,255)" stroke="rgb(255,255,255)" stroke-width="1" opacity="1" d="M 1351.5 733 L 1360.5 733 L 1363 734.5 L 1339.5 760 L 1318.5 768 L 1305.5 775 L 1306 773.5 L 1308 764.5 L 1312 756.5 L 1323.5 744 L 1335.5 737 L 1351.5 733 Z " /><path fill="rgb(255,255,255)" stroke="rgb(255,255,255)" stroke-width="1" opacity="1" d="M 1496.5 799 L 1500 801 L 1509 813.5 L 1513 823.5 L 1514 828.5 L 1514 845.5 L 1511 856.5 L 1502.5 870 L 1499 855.5 L 1493 839.5 L 1493 828.5 L 1496 812.5 L 1496.5 799 Z " /><path fill="rgb(255,255,255)" stroke="rgb(255,255,255)" stroke-width="1" opacity="1" d="M 1407.5 818 L 1408 819.5 L 1405 832.5 L 1405 849.5 L 1408 865.5 L 1402.5 861 L 1384.5 849 L 1367 842.5 L 1391.5 831 L 1407.5 818 Z " /><path fill="rgb(255,255,255)" stroke="rgb(255,255,255)" stroke-width="1" opacity="1" d="M 1408.5 828 L 1413 845.5 L 1414 864 L 1412 864 L 1412 861.5 L 1407 848.5 L 1406 833.5 L 1408.5 828 Z " /><path fill="rgb(255,255,255)" stroke="rgb(255,255,255)" stroke-width="1" opacity="1" d="M 1513.5 857 L 1514 865.5 L 1510 873 L 1507.5 874 L 1507 870.5 L 1513.5 857 Z " /><path fill="rgb(255,255,255)" stroke="rgb(255,255,255)" stroke-width="1" opacity="1" d="M 1416.5 888 L 1418 889.5 L 1419 901.5 L 1418 902.5 L 1418 910.5 L 1415 919.5 L 1412.5 922 L 1412 917.5 L 1414 911.5 L 1416.5 888 Z " /><path fill="rgb(255,255,255)" stroke="rgb(255,255,255)" stroke-width="1" opacity="1" d="M 1316 922 L 1324.5 925 L 1349.5 930 L 1380 952.5 L 1371.5 955 L 1361.5 956 L 1360.5 955 L 1353.5 955 L 1341.5 951 L 1325 938.5 L 1320 931.5 L 1316 922 Z " /></svg>