{
	"asset":{
		"version":"2.0",
		"generator":"Maxon Cinema 4D 2024.1.0 (#200000219)"
	},
	"scenes":[{
		"nodes":[0]
	}],
	"nodes":[{
		"name":"Symmetry.2",
		"translation":[-8.259416580200196,
		0.8164154887199402,
		-7.609792709350586],
		"scale":[1.0,
		1.0,
		1.0],
		"rotation":[0.0,
		0.0,
		0.0,
		-1.0],
		"children":[1,
		2]
	},
	{
		"name":"Symmetry.2",
		"mesh":0
	},
	{
		"name":"Symmetry.2-Mat.3",
		"mesh":1
	}],
	"meshes":[{
		"name":"Symmetry.2",
		"primitives":[{
			"attributes":{
				"POSITION":1,
				"TEXCOORD_0":2
			},
			"indices":0
		}]
	},
	{
		"name":"Symmetry.2-Mat.3",
		"primitives":[{
			"attributes":{
				"POSITION":4,
				"TEXCOORD_0":5
			},
			"indices":3,
			"material":0
		}]
	}],
	"accessors":[{
		"bufferView":0,
		"type":"SCALAR",
		"componentType":5123,
		"count":450,
		"byteOffset":0,
		"min":[0],
		"max":[449]
	},
	{
		"bufferView":1,
		"type":"VEC3",
		"componentType":5126,
		"count":450,
		"byteOffset":0,
		"min":[-0.20296642184257508,
		-0.1352899968624115,
		-0.1151903048157692],
		"max":[0.12866844236850739,
		0.1352899968624115,
		0.1151903048157692]
	},
	{
		"bufferView":1,
		"type":"VEC2",
		"componentType":5126,
		"count":450,
		"byteOffset":12,
		"min":[0.5,
		0.0],
		"max":[1.0,
		1.0]
	},
	{
		"bufferView":2,
		"type":"SCALAR",
		"componentType":5123,
		"count":18,
		"byteOffset":0,
		"min":[0],
		"max":[17]
	},
	{
		"bufferView":3,
		"type":"VEC3",
		"componentType":5126,
		"count":18,
		"byteOffset":0,
		"min":[0.10543598234653473,
		-0.03370437026023865,
		-0.057648804038763049],
		"max":[0.12678009271621705,
		0.021469846367836,
		0.057648804038763049]
	},
	{
		"bufferView":3,
		"type":"VEC2",
		"componentType":5126,
		"count":18,
		"byteOffset":12,
		"min":[0.9151357412338257,
		0.44864529371261599],
		"max":[1.0,
		0.5806190967559815]
	}],
	"bufferViews":[{
		"buffer":0,
		"byteOffset":0,
		"byteLength":900,
		"target":34963
	},
	{
		"buffer":0,
		"byteOffset":900,
		"byteLength":9000,
		"target":34962,
		"byteStride":20
	},
	{
		"buffer":1,
		"byteOffset":0,
		"byteLength":36,
		"target":34963
	},
	{
		"buffer":1,
		"byteOffset":36,
		"byteLength":360,
		"target":34962,
		"byteStride":20
	}],
	"buffers":[{
		"uri":"data:application/octet-stream;base64,",
		"byteLength":9900
	},
	{
		"uri":"data:application/octet-stream;base64,",
		"byteLength":396
	}],
	"materials":[{
		"name":"Mat.3",
		"pbrMetallicRoughness":{
			"baseColorFactor":[0.03597122302158273,
			0.03597122302158273,
			0.03597122302158273,
			1.0],
			"metallicFactor":0.10900000517722219,
			"roughnessFactor":1.0
		},
		"emissiveFactor":[0.0,
		0.0,
		0.0],
		"alphaMode":"OPAQUE",
		"doubleSided":false
	}]
}